<svg xmlns="http://www.w3.org/2000/svg" width="1200" height="300" viewBox="0 0 1200 300" role="img" aria-label="MADRE · MU/TH/UR 6000 · INTERFACE 2037">
  <defs>
    <linearGradient id="bg" x1="0" y1="0" x2="0" y2="1"><stop offset="0" stop-color="#050605"/><stop offset="1" stop-color="#0b0d0b"/></linearGradient>
    <pattern id="scan" width="4" height="4" patternUnits="userSpaceOnUse"><rect width="4" height="1" fill="#9bff66" fill-opacity="0.06"/></pattern>
    <filter id="glow" x="-20%" y="-50%" width="140%" height="200%"><feGaussianBlur stdDeviation="4" result="b"/><feMerge><feMergeNode in="b"/><feMergeNode in="SourceGraphic"/></feMerge></filter>
    <filter id="glowSoft" x="-20%" y="-50%" width="140%" height="200%"><feGaussianBlur stdDeviation="10"/></filter>
  </defs>
  <rect width="1200" height="300" fill="url(#bg)"/>
  <rect width="1200" height="300" fill="url(#scan)"/>
  <rect x="0.5" y="0.5" width="1199" height="299" fill="none" stroke="#9bff66" stroke-opacity="0.18"/>
  <g transform="translate(90 150)" stroke="#9bff66" fill="none" stroke-width="5" stroke-linecap="round" stroke-linejoin="round">
    <path d="M0 0 H140 L176 0 L208 -70 L248 70 L284 0 L312 0 L330 -36 L348 0 H460" stroke-opacity="0.25" filter="url(#glowSoft)" stroke-width="14"/>
    <path d="M0 0 H140 L176 0 L208 -70 L248 70 L284 0 L312 0 L330 -36 L348 0 H460" filter="url(#glow)"/>
    <circle cx="520" cy="0" r="12" fill="#9bff66" stroke="none" filter="url(#glow)"/>
  </g>
  <g font-family="SF Mono, Menlo, Consolas, monospace" fill="#9bff66">
    <text x="690" y="150" font-size="84" font-weight="700" letter-spacing="14" filter="url(#glow)">MADRE</text>
    <text x="692" y="194" font-size="15" letter-spacing="6" fill-opacity="0.75">MU/TH/UR 6000 · INTERFACE 2037</text>
    <text x="692" y="224" font-size="13" letter-spacing="3" fill-opacity="0.55">ONE ROOM · FOUR AGENTS · ONE MEMORY</text>
  </g>
  <g font-family="SF Mono, Menlo, Consolas, monospace" font-size="11" letter-spacing="4" fill="#9bff66" fill-opacity="0.45">
    <text x="90" y="262">CODEX · CLAUDE CODE · GEMINI CLI · OPENCODE</text>
    <text x="1110" y="262" text-anchor="end">PULSE CHANNEL · LOCAL FIRST</text>
  </g>
</svg>
